{
	"asset":{
		"copyright":"Atlasimex",
		"generator":"Khronos glTF Blender I/O v4.2.83",
		"version":"2.0"
	},
	"scene":0,
	"scenes":[
		{
			"name":"Scene",
			"nodes":[
				0
			]
		}
	],
	"nodes":[
		{
			"mesh":0,
			"name":"can",
			"scale":[
				1,
				1,
				1
			],
			"translation":[
				0,
				1.1289905309677124,
				0
			]
		}
	],
	"materials":[
		{
			"doubleSided":false,
			"name":"top.001",
			"pbrMetallicRoughness":{
				"roughnessFactor":0.206
			}
		},
		{
			"doubleSided":false,
			"name":"bottom.001",
			"pbrMetallicRoughness":{
				"roughnessFactor":0.206
			}
		},
		{
			"doubleSided":false,
			"name":"label",
			"pbrMetallicRoughness":{
				"roughnessFactor":0.206
			}
		}
	],
	"meshes":[
		{
			"name":"can_250ml",
			"primitives":[
				{
					"attributes":{
						"POSITION":0,
						"NORMAL":1,
						"TEXCOORD_0":2
					},
					"indices":3,
					"material":0
				},
				{
					"attributes":{
						"POSITION":4,
						"NORMAL":5,
						"TEXCOORD_0":6
					},
					"indices":7,
					"material":1
				},
				{
					"attributes":{
						"POSITION":8,
						"NORMAL":9,
						"TEXCOORD_0":10
					},
					"indices":11,
					"material":2
				}
			]
		}
	],
	"accessors":[
		{
			"bufferView":0,
			"componentType":5126,
			"count":2110,
			"max":[
				0.34228459000587463,
				0.9912242889404297,
				0.35426485538482666
			],
			"min":[
				-0.7786527872085571,
				0.9365615844726562,
				-0.3823705315589905
			],
			"type":"VEC3"
		},
		{
			"bufferView":1,
			"componentType":5126,
			"count":2110,
			"type":"VEC3"
		},
		{
			"bufferView":2,
			"componentType":5126,
			"count":2110,
			"type":"VEC2"
		},
		{
			"bufferView":3,
			"componentType":5123,
			"count":11928,
			"type":"SCALAR"
		},
		{
			"bufferView":4,
			"componentType":5126,
			"count":3306,
			"max":[
				1.0603854656219482,
				1.1141357421875,
				1.094387173652649
			],
			"min":[
				-1.1323521137237549,
				-4.099127292633057,
				-1.0983271598815918
			],
			"type":"VEC3"
		},
		{
			"bufferView":5,
			"componentType":5126,
			"count":3306,
			"type":"VEC3"
		},
		{
			"bufferView":6,
			"componentType":5126,
			"count":3306,
			"type":"VEC2"
		},
		{
			"bufferView":7,
			"componentType":5123,
			"count":19584,
			"type":"SCALAR"
		},
		{
			"bufferView":8,
			"componentType":5126,
			"count":656,
			"max":[
				1.0684900283813477,
				1.0496492385864258,
				1.1023950576782227
			],
			"min":[
				-1.1403359174728394,
				-3.8596277236938477,
				-1.1063340902328491
			],
			"type":"VEC3"
		},
		{
			"bufferView":9,
			"componentType":5126,
			"count":656,
			"type":"VEC3"
		},
		{
			"bufferView":10,
			"componentType":5126,
			"count":656,
			"type":"VEC2"
		},
		{
			"bufferView":11,
			"componentType":5123,
			"count":3360,
			"type":"SCALAR"
		}
	],
	"bufferViews":[
		{
			"buffer":0,
			"byteLength":25320,
			"byteOffset":0,
			"target":34962
		},
		{
			"buffer":0,
			"byteLength":25320,
			"byteOffset":25320,
			"target":34962
		},
		{
			"buffer":0,
			"byteLength":16880,
			"byteOffset":50640,
			"target":34962
		},
		{
			"buffer":0,
			"byteLength":23856,
			"byteOffset":67520,
			"target":34963
		},
		{
			"buffer":0,
			"byteLength":39672,
			"byteOffset":91376,
			"target":34962
		},
		{
			"buffer":0,
			"byteLength":39672,
			"byteOffset":131048,
			"target":34962
		},
		{
			"buffer":0,
			"byteLength":26448,
			"byteOffset":170720,
			"target":34962
		},
		{
			"buffer":0,
			"byteLength":39168,
			"byteOffset":197168,
			"target":34963
		},
		{
			"buffer":0,
			"byteLength":7872,
			"byteOffset":236336,
			"target":34962
		},
		{
			"buffer":0,
			"byteLength":7872,
			"byteOffset":244208,
			"target":34962
		},
		{
			"buffer":0,
			"byteLength":5248,
			"byteOffset":252080,
			"target":34962
		},
		{
			"buffer":0,
			"byteLength":6720,
			"byteOffset":257328,
			"target":34963
		}
	],
	"samplers":[
		{
			"magFilter":9729,
			"minFilter":9987
		}
	],
	"buffers":[
		{
			"byteLength":264048,
			"uri":"model.bin"
		}
	]
}
